{"glyphs":{":":{"x_min":0,"x_max":313,"ha":313,"o":"m 157 125 q 184 125 203 106 q 222 86 222 60 q 222 32 203 13 q 185 -6 157 -6 q 129 -6 110 13 q 91 32 91 60 q 91 86 111 105 q 130 125 157 125 z m 154 437 q 181 437 200 418 q 219 399 219 372 q 219 344 200 325 q 182 306 154 306 q 126 306 107 325 q 88 344 88 372 q 88 398 108 417 q 127 437 154 437 z"},"$":{"x_min":0,"x_max":587,"ha":587,"o":"m 305 301 l 305 30 q 362 35 397 72 q 431 109 431 164 q 431 215 400 249 q 369 283 305 301 z m 277 670 q 221 663 191 630 q 161 597 161 542 q 161 494 189 464 q 217 434 277 417 z m 277 785 l 318 785 l 318 707 q 406 701 458 662 q 510 623 510 566 q 510 538 497 521 q 484 505 462 505 q 439 505 426 522 q 413 539 413 569 q 413 583 417 597 q 422 612 431 628 q 413 646 385 657 q 357 667 318 670 l 318 406 q 435 369 484 320 q 533 270 533 191 q 533 105 473 52 q 413 0 305 -9 l 305 -106 l 264 -106 l 264 -8 q 165 -2 103 47 q 41 96 41 168 q 41 199 56 219 q 71 239 94 239 q 117 239 130 223 q 143 207 143 179 q 143 158 137 142 q 130 125 117 110 q 131 74 170 53 q 209 31 264 29 l 264 311 q 160 341 111 390 q 62 438 62 513 q 62 599 119 651 q 177 703 277 708 z"},"?":{"x_min":0,"x_max":514,"ha":514,"o":"m 206 125 q 233 125 252 106 q 271 86 271 60 q 271 31 253 13 q 234 -6 206 -6 q 179 -6 159 13 q 140 33 140 60 q 140 85 160 105 q 180 125 206 125 z m 224 187 l 187 187 q 187 193 186 200 q 186 207 186 220 q 186 266 199 299 q 212 332 244 366 q 247 369 254 376 q 329 456 329 546 q 329 618 304 655 q 279 693 232 693 q 196 693 170 676 q 145 658 139 631 q 155 623 165 605 q 176 588 176 572 q 176 547 164 533 q 151 519 130 519 q 106 519 91 537 q 75 556 75 585 q 75 644 124 686 q 173 727 246 727 q 334 727 387 678 q 441 629 441 550 q 441 502 425 466 q 410 430 375 397 q 358 381 319 353 q 280 325 263 308 q 242 287 233 262 q 224 237 224 196 z"},"<":{"x_min":0,"x_max":833,"ha":833,"o":"m 704 484 l 248 298 l 704 112 l 704 23 l 129 259 l 129 337 l 704 574 z"},"'":{"x_min":0,"x_max":175,"ha":175,"o":"m 78 418 l 42 642 q 42 646 41 650 q 41 654 41 661 q 41 687 53 700 q 65 714 87 714 q 110 714 122 700 q 134 687 134 661 q 134 653 134 649 q 133 645 133 642 l 97 418 z"},"=":{"x_min":0,"x_max":833,"ha":833,"o":"m 709 238 l 709 157 l 124 157 l 124 238 z m 709 440 l 709 358 l 124 358 l 124 440 z"},"a":{"x_min":0,"x_max":538,"ha":538,"o":"m 325 72 q 289 28 250 10 q 211 -9 155 -9 q 98 -9 64 21 q 31 52 31 104 q 31 162 71 194 q 111 226 247 254 q 260 257 279 260 q 322 268 322 285 l 322 339 q 322 406 302 431 q 282 456 233 456 q 210 456 189 449 q 169 442 151 428 q 154 412 155 401 q 156 390 156 380 q 156 352 140 333 q 125 315 102 315 q 81 315 68 328 q 55 341 55 364 q 55 414 114 452 q 172 490 255 490 q 346 490 388 451 q 431 412 431 327 l 431 324 l 430 147 l 430 125 q 430 79 439 66 q 447 53 469 53 q 482 53 493 60 q 504 66 513 80 l 534 66 q 514 30 483 10 q 452 -9 415 -9 q 373 -9 351 10 q 330 29 325 72 z m 322 237 q 211 216 176 192 q 140 167 140 122 q 140 86 159 64 q 179 42 210 42 q 239 42 268 61 q 297 80 321 115 z"},"L":{"x_min":0,"x_max":641,"ha":641,"o":"m 48 718 q 98 715 134 713 q 171 712 193 712 q 234 712 333 717 q 348 718 355 718 l 355 678 l 345 678 q 289 678 273 664 q 258 650 258 594 l 258 43 l 415 43 q 513 43 550 81 q 587 120 597 234 l 633 234 l 614 -3 q 520 0 441 1 q 362 2 322 2 q 238 2 60 0 l 48 0 l 48 39 q 102 39 116 53 q 131 68 131 123 l 131 594 q 131 650 116 664 q 102 677 48 678 z"},"3":{"x_min":0,"x_max":587,"ha":587,"o":"m 299 364 l 299 360 q 418 354 476 312 q 534 269 534 186 q 534 98 463 44 q 392 -9 272 -9 q 172 -9 105 37 q 38 83 38 146 q 38 174 52 191 q 67 209 89 209 q 114 209 129 190 q 145 171 145 140 q 145 124 140 107 q 135 90 135 88 q 135 68 172 49 q 209 30 259 30 q 333 30 374 72 q 415 114 415 191 q 415 264 372 299 q 329 334 239 334 q 227 334 200 332 l 197 332 l 197 376 q 291 379 337 419 q 384 459 384 537 q 384 598 350 634 q 317 670 261 670 q 228 670 199 659 q 170 648 151 628 q 156 613 158 601 q 160 588 160 577 q 160 545 146 527 q 131 509 107 509 q 87 509 75 523 q 63 537 63 560 q 63 618 127 663 q 190 708 281 708 q 377 708 438 660 q 498 611 498 535 q 498 465 448 422 q 399 380 299 364 z"},";":{"x_min":0,"x_max":313,"ha":313,"o":"m 97 -164 l 77 -137 q 120 -105 141 -73 q 162 -41 162 -6 l 162 1 q 155 0 149 -1 q 143 -2 137 -2 q 109 -2 92 16 q 75 34 75 62 q 75 92 94 111 q 113 130 143 130 q 178 130 200 102 q 222 74 222 30 q 222 -24 190 -73 q 159 -122 97 -164 z m 149 437 q 176 437 194 418 q 213 399 213 372 q 213 343 195 325 q 177 306 149 306 q 121 306 102 325 q 82 344 82 371 q 82 397 102 417 q 122 437 149 437 z"},"J":{"x_min":0,"x_max":465,"ha":465,"o":"m 110 718 q 116 718 128 717 q 235 712 278 712 q 303 712 376 716 q 404 717 420 718 l 420 678 q 369 677 355 663 q 341 649 341 594 l 341 126 q 341 0 291 -62 q 241 -124 141 -124 q 72 -124 28 -88 q -16 -53 -16 2 q -16 35 1 54 q 18 73 47 73 q 71 73 87 55 q 103 37 103 9 q 103 -12 93 -30 q 83 -47 63 -60 q 73 -74 89 -82 q 105 -90 126 -90 q 175 -90 196 -59 q 216 -28 216 56 q 216 70 215 103 q 214 135 214 154 l 214 594 q 214 653 197 666 q 180 678 110 678 z"},"V":{"x_min":0,"x_max":652,"ha":652,"o":"m -6 718 q 43 715 77 713 q 112 712 132 712 q 157 712 232 716 q 260 717 275 718 l 275 678 q 233 676 220 669 q 207 662 207 644 q 207 635 210 624 q 212 613 218 597 l 376 150 l 525 596 q 531 612 533 621 q 535 630 535 639 q 535 660 518 669 q 501 678 462 678 l 462 718 q 499 715 522 714 q 545 713 562 713 q 575 713 596 714 q 617 715 655 718 l 655 678 q 619 675 606 666 q 592 657 585 635 l 423 170 q 408 129 391 84 q 375 39 356 -9 l 306 -3 l 74 614 l 73 617 q 51 678 -6 678 z"},"\"":{"x_min":0,"x_max":339,"ha":339,"o":"m 242 418 l 206 642 q 206 646 205 650 q 205 654 205 661 q 205 686 218 700 q 230 714 252 714 q 274 714 286 700 q 299 687 299 662 q 299 656 297 645 q 297 643 297 642 l 261 418 z m 78 418 l 42 642 q 42 646 41 650 q 41 654 41 661 q 41 687 53 700 q 65 714 87 714 q 110 714 122 700 q 134 687 134 661 q 134 653 134 649 q 133 645 133 642 l 97 418 z"},"7":{"x_min":0,"x_max":587,"ha":587,"o":"m 67 708 q 104 703 156 700 q 208 698 306 698 l 360 698 q 452 698 486 699 q 519 699 540 701 l 556 682 l 435 445 q 414 404 393 360 q 373 316 354 269 q 340 235 333 205 q 327 175 327 139 l 327 121 q 327 101 328 78 q 328 55 328 53 q 328 35 323 26 q 317 16 303 6 q 285 -7 261 -16 q 238 -25 228 -25 q 215 -25 211 -16 q 206 -7 206 22 q 206 156 280 277 q 286 287 289 292 l 475 608 q 438 606 398 606 q 358 605 317 605 q 278 605 231 606 q 185 607 177 607 q 132 607 120 590 q 107 574 107 514 l 107 501 l 69 501 q 69 519 68 552 q 68 585 68 601 q 68 624 68 651 q 67 678 67 708 z"},"S":{"x_min":0,"x_max":633,"ha":633,"o":"m 502 667 l 510 706 l 540 706 q 539 675 538 651 q 537 627 537 611 q 537 586 538 559 q 539 532 540 500 l 508 500 q 499 590 452 638 q 406 686 328 686 q 268 686 230 651 q 193 616 193 561 q 193 514 220 485 q 247 457 340 422 q 482 369 525 322 q 569 276 569 201 q 569 106 500 49 q 432 -9 319 -9 q 261 -9 211 10 q 162 29 117 67 l 105 17 l 76 17 q 76 34 77 65 q 78 123 78 140 q 78 155 77 205 q 76 235 76 252 l 111 252 q 117 148 170 89 q 223 31 310 31 q 374 31 412 65 q 449 99 449 158 q 449 205 421 234 q 393 264 317 292 q 308 295 289 302 q 192 336 151 366 q 111 395 93 431 q 75 468 75 518 q 75 614 139 670 q 203 727 312 727 q 366 727 413 712 q 461 697 502 667 z"},"}":{"x_min":0,"x_max":500,"ha":500,"o":"m 281 571 l 281 473 q 281 394 309 364 q 336 334 414 327 l 414 294 q 337 288 309 258 q 281 228 281 148 l 281 50 q 281 -46 240 -83 q 199 -119 90 -119 l 85 -119 l 85 -91 q 148 -90 171 -65 q 194 -40 194 37 l 194 104 q 194 215 221 255 q 249 294 323 310 q 250 326 222 365 q 194 405 194 516 l 194 583 q 194 660 171 686 q 147 711 85 712 l 85 740 l 90 740 q 199 740 240 704 q 281 667 281 571 z"},"Z":{"x_min":0,"x_max":666,"ha":666,"o":"m 49 720 q 83 719 120 719 q 157 718 161 718 l 619 718 l 619 715 l 204 40 l 431 40 q 533 40 565 75 q 597 109 606 221 l 639 221 l 628 0 l 30 0 l 30 3 l 447 678 l 241 678 q 140 678 110 648 q 79 617 73 523 l 39 523 z"},"x":{"x_min":0,"x_max":544,"ha":544,"o":"m 9 480 q 45 479 75 478 q 104 477 126 477 q 153 477 184 478 q 215 479 250 480 l 250 446 q 232 446 222 440 q 212 435 212 425 q 212 417 214 410 q 217 403 222 396 l 291 299 l 374 399 q 379 405 382 412 q 385 419 385 425 q 385 436 375 440 q 365 445 341 446 l 341 480 q 366 479 387 478 q 408 477 426 477 q 442 477 463 478 q 484 479 511 480 l 511 446 l 508 446 q 483 446 463 435 q 442 423 413 389 l 314 275 l 466 74 q 483 52 498 44 q 512 36 534 34 l 534 0 q 493 1 466 2 q 439 3 427 3 q 399 3 366 2 q 333 1 293 0 l 293 34 l 297 34 q 316 34 327 40 q 338 45 338 55 q 338 63 335 70 q 333 77 326 86 l 239 206 l 139 91 q 132 83 128 74 q 124 65 124 59 q 124 47 137 41 q 151 34 176 34 l 176 0 q 144 1 120 2 q 96 3 81 3 q 66 3 43 2 q 21 1 -9 0 l -9 34 q 18 36 36 44 q 54 52 70 69 l 216 230 l 83 406 l 82 408 q 54 444 9 446 z"},")":{"x_min":0,"x_max":416,"ha":416,"o":"m 30 745 q 180 629 251 510 q 322 391 322 253 q 322 102 247 -17 q 172 -135 23 -220 l 8 -197 q 125 -114 181 -6 q 238 101 238 240 q 238 379 183 497 q 128 615 13 723 z"},"&":{"x_min":0,"x_max":758,"ha":758,"o":"m 300 439 q 340 454 361 485 q 382 517 382 562 q 382 614 353 651 q 324 688 281 688 q 246 688 223 660 q 199 633 199 590 q 199 540 226 500 q 252 460 300 439 z m 237 366 q 198 346 179 310 q 159 273 159 221 q 159 142 197 96 q 234 51 300 51 q 340 51 375 69 q 410 86 437 120 q 433 127 426 142 q 330 333 237 366 z m 335 418 q 386 396 426 350 q 466 305 514 208 q 540 246 554 284 q 569 322 569 349 q 569 373 554 381 q 539 390 491 391 l 491 429 q 535 426 561 425 q 587 424 605 424 q 621 424 646 425 q 672 426 716 429 l 716 392 q 672 392 651 383 q 630 375 623 354 q 621 349 616 332 q 588 239 537 168 q 564 111 590 89 q 615 68 652 68 q 678 68 701 88 q 723 109 737 146 l 766 135 q 741 63 699 27 q 656 -9 596 -9 q 554 -9 517 14 q 481 38 456 81 q 414 37 360 14 q 307 -9 245 -9 q 154 -9 98 44 q 42 97 42 184 q 42 253 82 305 q 122 357 200 390 q 150 421 125 461 q 100 501 100 551 q 100 629 154 678 q 208 727 295 727 q 375 727 423 687 q 471 647 471 581 q 471 527 437 485 q 402 444 335 418 z"},"_":{"x_min":0,"x_max":500,"ha":500,"o":"m 500 -152 l 500 -236 l 0 -236 l 0 -152 z"},"v":{"x_min":0,"x_max":502,"ha":502,"o":"m -4 480 q 30 478 58 477 q 87 476 106 476 q 139 476 171 477 q 203 478 235 480 l 235 446 q 196 444 184 439 q 173 434 173 421 q 173 416 174 409 q 176 403 180 391 l 285 106 l 394 392 q 396 399 398 406 q 399 414 399 421 q 399 434 388 439 q 378 444 341 446 l 341 480 q 363 478 383 477 q 404 476 422 476 q 440 476 460 477 q 479 478 501 480 l 501 446 q 474 446 461 437 q 447 428 435 396 l 330 131 q 328 125 322 111 q 295 40 272 -9 l 217 -3 l 55 403 l 54 405 q 38 446 0 446 l -4 446 z"},"O":{"x_min":0,"x_max":790,"ha":790,"o":"m 391 687 q 294 687 238 599 q 182 512 182 359 q 182 204 239 117 q 296 30 398 30 q 494 30 551 118 q 608 207 608 359 q 608 514 550 600 q 493 687 391 687 z m 397 727 q 554 727 651 625 q 748 524 748 359 q 748 199 647 95 q 547 -9 393 -9 q 237 -9 140 92 q 42 192 42 354 q 42 518 142 623 q 242 727 397 727 z"},"(":{"x_min":0,"x_max":416,"ha":416,"o":"m 393 745 l 408 722 q 291 639 235 531 q 178 424 178 286 q 178 146 233 29 q 288 -89 403 -197 l 386 -220 q 236 -106 165 14 q 94 133 94 271 q 94 422 169 542 q 244 661 393 745 z"},"C":{"x_min":0,"x_max":723,"ha":723,"o":"m 620 639 l 629 689 l 661 689 q 661 681 660 667 q 657 589 657 557 q 657 538 658 485 q 659 462 659 450 l 626 450 q 617 562 561 625 q 504 687 411 687 q 298 687 241 606 q 184 526 184 367 q 184 208 246 125 q 307 42 424 42 q 504 42 559 84 q 614 126 633 203 l 670 203 q 654 102 582 46 q 509 -9 392 -9 q 234 -9 138 90 q 42 189 42 353 q 42 520 140 623 q 238 727 395 727 q 461 727 520 704 q 579 681 620 639 z"},"W":{"x_min":0,"x_max":1026,"ha":1026,"o":"m -2 718 q 43 715 76 713 q 109 712 129 712 q 167 712 256 717 q 269 718 275 718 l 275 678 q 238 677 224 670 q 211 663 211 645 q 211 638 213 626 q 216 615 221 597 l 360 154 l 497 558 l 478 613 q 463 656 448 667 q 432 677 397 678 l 397 718 q 413 717 442 716 q 508 712 529 712 q 566 712 655 717 q 670 718 678 718 l 678 678 q 635 676 622 668 q 609 661 609 641 q 609 634 611 625 q 613 616 619 597 l 755 157 l 901 594 q 905 606 907 618 q 909 630 909 638 q 909 659 894 668 q 878 677 837 678 l 837 718 q 875 715 897 714 q 920 713 936 713 q 952 713 975 714 q 997 715 1031 718 l 1031 678 q 998 675 984 666 q 970 656 962 634 l 804 183 q 798 166 779 114 q 760 61 734 -9 l 685 -2 l 518 495 l 401 159 q 389 123 373 80 q 357 38 339 -9 l 289 -2 l 78 617 q 64 658 48 668 q 33 678 -2 678 z"},"A":{"x_min":0,"x_max":647,"ha":647,"o":"m 278 566 l 182 299 l 368 299 z m 295 727 l 348 727 l 579 92 q 591 60 606 49 q 622 39 656 39 l 656 0 q 593 3 565 4 q 536 5 519 5 q 498 5 465 4 q 432 3 370 0 l 370 39 q 407 40 423 49 q 439 58 439 78 q 439 85 438 91 q 438 97 436 101 l 383 259 l 170 259 l 129 143 q 128 140 126 136 q 112 94 112 78 q 112 58 123 50 q 135 42 170 39 l 170 0 q 144 2 119 3 q 95 4 75 4 q 58 4 35 3 q 12 2 -15 0 l -15 39 q 18 39 33 49 q 48 60 61 95 z"},"f":{"x_min":0,"x_max":355,"ha":355,"o":"m 213 584 l 213 459 l 350 459 l 350 424 l 213 424 l 213 102 q 213 54 228 45 q 242 36 317 34 l 317 0 q 253 3 214 4 q 175 5 147 5 q 127 5 17 0 l 7 0 l 7 34 q 76 38 88 48 q 101 58 101 102 l 101 424 l 8 424 l 8 459 l 53 459 q 100 459 102 501 q 102 504 102 506 q 107 629 153 687 q 198 744 289 744 q 349 744 386 715 q 423 687 423 641 q 423 614 408 597 q 394 581 370 581 q 349 581 334 596 q 320 611 320 633 q 320 654 336 676 q 341 683 341 685 q 341 694 326 703 q 311 711 291 711 q 248 711 230 684 q 213 658 213 584 z"},"Q":{"x_min":0,"x_max":790,"ha":790,"o":"m 540 101 q 574 147 591 213 q 608 278 608 359 q 608 514 550 600 q 493 687 391 687 q 294 687 238 599 q 182 512 182 359 q 182 283 197 222 q 211 161 241 116 q 269 157 307 178 q 346 199 394 199 q 448 199 487 173 q 526 147 540 101 z m 561 32 q 568 -26 587 -52 q 605 -78 640 -78 q 669 -78 688 -60 q 708 -41 719 -2 l 747 -12 q 733 -75 696 -107 q 659 -138 599 -138 q 534 -138 499 -104 q 463 -70 458 -2 q 439 -6 423 -8 q 408 -10 394 -10 q 239 -10 140 92 q 42 193 42 355 q 42 519 143 623 q 243 727 400 727 q 552 727 650 624 q 747 521 747 361 q 747 250 698 164 q 649 77 561 32 z m 454 39 q 446 93 423 119 q 400 145 359 145 q 330 145 305 132 q 280 118 260 91 q 290 60 322 45 q 355 30 396 30 q 407 30 421 32 q 436 35 454 39 z"},"w":{"x_min":0,"x_max":767,"ha":767,"o":"m 1 480 q 32 478 61 477 q 89 476 116 476 q 143 476 172 477 q 201 478 231 480 l 231 446 q 196 444 186 438 q 176 432 176 415 q 176 409 177 403 q 177 398 179 392 l 266 118 l 374 413 q 372 431 360 438 q 348 446 322 446 l 322 480 q 351 478 378 477 q 404 476 428 476 q 452 476 479 477 q 506 478 535 480 l 535 446 q 507 444 498 438 q 488 432 488 416 q 488 412 489 406 q 490 400 493 392 l 573 115 l 666 391 q 669 401 670 407 q 672 414 672 418 q 672 432 664 437 q 656 442 621 446 l 621 480 q 640 478 657 477 q 675 476 692 476 q 711 476 730 477 q 750 478 770 480 l 770 446 q 745 446 732 436 q 719 426 707 394 l 620 152 q 613 131 591 75 q 569 19 559 -9 l 506 -3 l 394 366 l 302 124 q 297 112 280 68 q 262 23 250 -9 l 196 -3 l 62 401 q 53 429 42 437 q 30 446 8 446 l 1 446 z"},"-":{"x_min":0,"x_max":331,"ha":331,"o":"m 41 287 l 284 287 l 284 204 l 41 204 z"},"E":{"x_min":0,"x_max":703,"ha":703,"o":"m 608 721 q 609 686 612 642 q 614 598 619 530 l 586 530 q 577 618 542 648 q 507 678 410 678 l 258 678 l 258 400 l 328 400 q 395 400 412 419 q 430 439 434 511 l 467 511 q 466 496 465 469 q 463 399 463 376 q 463 337 466 247 q 467 233 467 227 l 434 227 q 430 310 411 334 q 392 359 328 359 l 258 359 l 258 40 l 447 40 q 547 40 584 75 q 620 109 629 209 l 662 209 q 657 150 653 98 q 650 47 648 0 l 48 0 l 48 39 q 102 39 116 53 q 131 68 131 123 l 131 594 q 131 650 116 664 q 102 677 48 678 l 48 718 l 176 718 q 312 718 420 719 q 528 720 608 721 z"},"s":{"x_min":0,"x_max":452,"ha":452,"o":"m 348 446 l 356 476 l 386 476 q 386 465 384 441 q 383 417 383 406 q 383 385 385 340 l 385 337 l 355 337 q 348 393 315 423 q 282 453 228 453 q 186 453 160 433 q 135 412 135 379 q 135 328 254 292 q 265 289 270 287 q 350 262 382 230 q 414 198 414 145 q 414 74 363 33 q 312 -9 224 -9 q 184 -9 149 1 q 115 12 85 33 l 77 3 l 48 3 q 48 8 48 18 q 50 78 50 103 l 50 137 l 50 169 l 81 169 q 85 98 120 62 q 155 27 221 27 q 267 27 293 48 q 320 68 320 104 q 320 136 299 155 q 279 173 215 193 q 104 227 73 258 q 42 289 42 342 q 42 408 89 448 q 137 489 215 489 q 255 489 288 478 q 320 468 348 446 z"},">":{"x_min":0,"x_max":833,"ha":833,"o":"m 704 337 l 704 259 l 129 23 l 129 112 l 585 298 l 129 484 l 129 574 z"},"l":{"x_min":0,"x_max":297,"ha":297,"o":"m 92 643 q 92 678 80 688 q 69 698 8 700 l 8 734 q 48 735 94 737 q 140 739 204 744 l 204 102 q 204 55 217 46 q 230 36 281 34 l 281 0 q 222 3 192 4 q 162 5 144 5 q 130 5 104 4 q 77 3 16 0 l 16 34 q 69 39 80 48 q 92 58 92 102 z"},"8":{"x_min":0,"x_max":587,"ha":587,"o":"m 238 326 q 193 305 168 264 q 143 223 143 171 q 143 107 184 68 q 224 29 290 29 q 352 29 390 65 q 428 102 428 160 q 428 219 391 254 q 353 289 238 326 z m 378 373 q 461 348 501 304 q 542 259 542 193 q 542 100 474 45 q 405 -9 287 -9 q 177 -9 111 42 q 44 93 44 175 q 44 236 83 279 q 121 322 199 347 q 134 371 104 412 q 73 452 73 514 q 73 600 135 654 q 196 708 296 708 q 391 708 449 660 q 507 613 507 536 q 507 480 475 440 q 443 399 378 373 z m 340 390 q 379 412 400 447 q 420 482 420 528 q 420 589 385 630 q 351 670 298 670 q 245 670 210 635 q 176 600 176 546 q 176 494 211 459 q 246 425 340 390 z"},"\\":{"x_min":0,"x_max":317,"ha":317,"o":"m -25 727 l 35 727 l 333 -93 l 273 -93 z"},"e":{"x_min":0,"x_max":532,"ha":532,"o":"m 156 256 q 157 152 196 99 q 236 45 311 45 q 364 45 403 71 q 442 98 462 148 l 490 139 q 468 66 414 29 q 359 -9 273 -9 q 162 -9 99 57 q 36 123 36 239 q 36 352 102 421 q 167 490 275 490 q 375 490 433 431 q 490 371 490 267 l 490 260 z m 156 290 l 388 296 q 388 374 360 414 q 331 455 277 455 q 224 455 191 411 q 159 367 156 290 z"},"b":{"x_min":0,"x_max":560,"ha":560,"o":"m 177 104 q 177 76 209 54 q 241 32 283 32 q 346 32 374 82 q 402 131 402 244 q 402 339 374 389 q 346 439 294 439 q 262 439 231 417 q 201 395 177 353 z m 65 643 q 65 678 53 688 q 42 698 -9 700 l -9 734 q 24 734 67 737 q 110 739 177 744 l 177 407 q 205 448 243 469 q 281 490 328 490 q 413 490 468 424 q 522 357 522 252 q 522 133 461 62 q 400 -9 298 -9 q 246 -9 197 16 q 148 40 147 40 q 139 40 125 28 q 110 15 90 -9 l 65 -9 z"},"%":{"x_min":0,"x_max":826,"ha":826,"o":"m 624 390 q 585 390 563 339 q 541 287 541 195 q 541 110 561 66 q 581 22 620 22 q 658 22 681 74 q 703 127 703 218 q 703 301 683 346 q 662 390 624 390 z m 623 421 q 698 421 742 363 q 786 305 786 206 q 786 109 741 50 q 695 -9 621 -9 q 545 -9 502 49 q 458 106 458 206 q 458 302 504 362 q 550 421 623 421 z m 205 678 q 167 678 144 625 q 122 573 122 481 q 122 398 143 354 q 163 309 201 309 q 240 309 263 361 q 285 413 285 505 q 285 589 264 634 q 244 678 205 678 z m 613 708 l 664 708 l 212 -9 l 161 -9 z m 204 708 q 279 708 323 650 q 367 593 367 493 q 367 396 321 337 q 275 278 202 278 q 128 278 84 335 q 39 392 39 487 q 39 588 84 648 q 128 708 204 708 z"},"m":{"x_min":0,"x_max":928,"ha":928,"o":"m 95 382 q 95 420 83 430 q 70 439 14 440 l 14 475 q 62 477 109 480 q 156 484 202 490 l 202 378 q 235 433 279 462 q 323 490 375 490 q 436 490 473 461 q 510 432 517 378 q 550 434 593 462 q 636 490 690 490 q 765 490 801 448 q 836 405 836 315 l 836 97 q 836 55 847 46 q 857 38 897 34 l 897 0 q 842 3 817 4 q 792 5 779 5 q 761 5 733 4 q 705 3 651 0 l 651 34 q 704 38 715 47 q 727 57 727 102 l 727 323 q 727 381 709 408 q 690 435 651 435 q 605 435 569 399 q 532 364 520 306 l 520 97 q 520 55 531 46 q 542 37 581 34 l 581 0 q 530 3 504 4 q 478 5 463 5 q 445 5 417 4 q 389 3 335 0 l 335 34 q 388 38 399 47 q 411 57 411 102 l 411 323 q 411 381 393 408 q 375 435 335 435 q 290 435 253 399 q 216 363 205 306 l 205 102 q 205 56 215 47 q 226 38 265 34 l 265 0 q 205 3 181 4 q 157 5 144 5 q 127 5 99 4 q 71 3 16 0 l 16 34 q 74 39 84 49 q 95 58 95 102 z"},"#":{"x_min":0,"x_max":769,"ha":769,"o":"m 477 419 l 343 419 l 297 290 l 431 290 z m 449 713 l 373 500 l 504 500 l 580 713 l 669 713 l 593 500 l 735 500 l 706 419 l 564 419 l 519 291 l 669 291 l 640 209 l 490 209 l 415 -3 l 325 -3 l 401 209 l 270 209 l 195 -3 l 105 -3 l 181 209 l 34 209 l 63 291 l 210 291 l 255 419 l 99 419 l 129 500 l 284 500 l 360 713 z"},",":{"x_min":0,"x_max":294,"ha":294,"o":"m 88 -164 l 69 -137 q 112 -105 133 -73 q 154 -41 154 -6 l 154 1 q 147 0 141 -1 q 135 -2 129 -2 q 101 -2 84 16 q 67 34 67 62 q 67 92 86 111 q 104 130 135 130 q 170 130 192 102 q 214 74 214 30 q 214 -24 182 -73 q 151 -122 88 -164 z"},"n":{"x_min":0,"x_max":636,"ha":636,"o":"m 95 382 q 95 420 83 430 q 70 439 14 440 l 14 475 q 62 477 109 480 q 157 484 203 490 l 203 375 q 235 432 282 461 q 330 490 390 490 q 470 490 507 447 q 544 404 544 311 l 544 102 q 544 56 554 47 q 564 38 604 34 l 604 0 q 551 3 525 4 q 499 5 484 5 q 466 5 437 4 q 407 3 355 0 l 355 34 q 409 39 420 48 q 431 58 431 102 l 431 318 q 431 382 411 409 q 391 436 345 436 q 295 436 251 390 q 207 344 207 296 l 207 102 q 207 57 217 48 q 228 38 268 34 l 268 0 q 216 3 189 4 q 163 5 147 5 q 128 5 99 4 q 70 3 16 0 l 16 34 q 73 39 84 49 q 95 58 95 102 z"},"h":{"x_min":0,"x_max":638,"ha":638,"o":"m 206 744 l 206 377 q 241 433 287 462 q 333 490 390 490 q 473 490 509 448 q 546 406 546 309 l 546 102 q 546 57 556 47 q 566 38 606 34 l 606 0 q 553 3 527 4 q 501 5 486 5 q 468 5 438 4 q 409 3 357 0 l 357 34 q 410 39 422 48 q 434 58 434 102 l 434 318 q 434 382 415 409 q 396 436 354 436 q 298 436 252 388 q 206 340 206 285 l 206 102 q 206 57 216 48 q 227 38 266 34 l 266 0 q 203 3 181 4 q 159 5 146 5 q 128 5 99 4 q 70 3 14 0 l 14 34 q 70 39 82 49 q 94 58 94 102 l 94 643 q 94 678 83 688 q 71 698 20 700 l 20 734 q 53 734 96 737 q 139 739 206 744 z"},"z":{"x_min":0,"x_max":494,"ha":494,"o":"m 45 480 l 462 480 l 462 475 l 173 34 l 298 34 q 383 34 408 56 q 433 78 434 144 l 462 144 l 462 0 l 24 0 l 24 5 l 314 446 l 192 446 q 122 446 100 427 q 78 409 74 355 l 45 355 z"},"B":{"x_min":0,"x_max":690,"ha":690,"o":"m 257 347 l 257 41 l 323 41 q 420 41 459 75 q 498 109 498 191 q 498 275 458 311 q 417 347 321 347 z m 257 677 l 257 387 l 331 387 q 410 387 444 421 q 478 455 478 532 q 478 612 445 645 q 411 677 320 677 z m 48 718 q 79 716 110 716 q 141 715 171 715 q 229 715 290 716 q 352 718 355 718 q 482 718 542 675 q 603 631 603 541 q 603 464 556 419 q 508 375 419 368 l 419 365 q 524 359 578 312 q 633 266 633 183 q 633 88 566 44 q 500 0 353 0 q 316 0 259 1 q 202 3 181 3 q 151 3 118 2 q 84 1 48 0 l 48 39 q 102 39 116 53 q 131 68 131 123 l 131 604 q 131 654 116 666 q 101 677 48 678 z"},"K":{"x_min":0,"x_max":705,"ha":705,"o":"m 48 718 q 63 717 91 716 q 166 712 191 712 q 223 712 308 716 q 330 717 341 718 l 341 678 q 288 678 273 664 q 258 649 258 594 l 258 348 q 363 444 437 538 q 511 632 511 657 q 511 671 499 677 q 487 682 448 682 l 448 718 q 487 715 513 714 q 539 713 558 713 q 577 713 604 714 q 630 715 673 718 l 673 682 q 637 680 620 674 q 602 668 586 653 q 573 642 508 561 q 442 481 389 419 l 625 96 q 646 66 670 53 q 693 39 723 39 l 726 39 l 726 0 q 672 3 641 4 q 610 5 589 5 q 572 5 543 4 q 514 3 449 0 l 449 39 q 474 40 486 45 q 498 50 498 60 q 498 65 494 73 q 491 81 482 94 l 307 340 l 258 301 l 258 123 q 258 67 272 53 q 287 39 341 39 l 341 0 q 282 3 250 4 q 217 5 198 5 q 166 5 128 4 q 90 2 48 0 l 48 39 q 102 39 116 53 q 131 68 131 123 l 131 594 q 131 650 116 664 q 102 677 48 678 z"},"R":{"x_min":0,"x_max":718,"ha":718,"o":"m 258 381 q 270 380 282 380 q 294 380 312 380 q 401 380 440 417 q 480 453 480 534 q 480 609 441 644 q 402 679 319 679 q 302 679 264 677 q 260 677 258 677 z m 48 718 q 81 716 114 716 q 146 715 180 715 q 208 715 261 716 q 314 718 340 718 q 476 718 543 674 q 610 631 610 543 q 610 457 557 412 q 503 368 391 361 q 493 354 536 320 q 580 285 590 203 q 593 182 595 143 q 599 56 639 56 q 660 56 672 70 q 684 83 690 114 l 718 109 q 709 49 678 20 q 647 -9 591 -9 q 527 -9 499 24 q 470 58 470 134 q 470 143 471 161 q 471 178 471 188 q 471 279 437 309 q 402 339 309 339 l 258 339 l 258 123 q 258 67 272 53 q 287 39 340 39 l 340 0 q 280 3 249 4 q 217 5 198 5 q 177 5 145 4 q 112 3 48 0 l 48 39 q 102 39 116 53 q 131 68 131 123 l 131 594 q 131 650 116 664 q 102 677 48 678 z"},"T":{"x_min":0,"x_max":698,"ha":698,"o":"m 35 718 l 663 718 l 683 528 l 651 528 q 639 615 606 647 q 574 678 495 678 l 413 678 l 413 123 q 413 66 427 53 q 442 39 497 39 l 508 39 l 508 0 q 464 2 424 4 q 385 5 353 5 q 331 5 297 4 q 262 3 191 0 l 191 39 l 202 39 q 256 39 271 53 q 285 66 285 123 l 285 678 l 203 678 q 124 678 91 646 q 59 615 47 528 l 15 528 z"},"P":{"x_min":0,"x_max":641,"ha":641,"o":"m 257 359 q 260 359 267 358 q 307 357 321 357 q 403 357 442 396 q 482 435 482 516 q 482 604 443 641 q 403 679 312 679 q 308 679 289 678 q 270 677 257 677 z m 48 718 l 54 718 q 130 714 165 714 q 206 714 260 716 q 315 718 329 718 q 479 718 547 671 q 615 625 615 525 q 615 418 550 367 q 485 315 352 315 q 336 315 314 316 q 292 317 258 320 l 258 123 q 258 67 273 53 q 289 39 346 39 l 358 39 l 358 0 q 292 3 256 4 q 220 5 198 5 q 178 5 146 4 q 113 3 48 0 l 48 39 q 102 39 116 53 q 131 68 131 123 l 131 594 q 131 650 116 664 q 102 677 48 678 z"},"|":{"x_min":0,"x_max":500,"ha":500,"o":"m 294 764 l 294 -236 l 207 -236 l 207 764 z"},"t":{"x_min":0,"x_max":369,"ha":369,"o":"m 169 614 l 205 614 l 201 463 l 323 463 l 323 428 l 200 428 l 193 155 l 193 138 q 193 88 207 68 q 220 49 252 49 q 275 49 292 61 q 308 73 320 100 l 346 88 q 333 43 296 17 q 259 -9 209 -9 q 140 -9 111 24 q 81 57 81 136 l 81 151 l 88 428 l 35 428 l 35 456 q 92 478 125 517 q 157 555 169 614 z"},"M":{"x_min":0,"x_max":940,"ha":940,"o":"m 45 718 q 84 715 110 714 q 137 713 156 713 q 173 713 201 714 q 228 715 276 718 l 470 169 l 665 718 q 710 715 734 714 q 758 713 773 713 q 793 713 821 714 q 849 715 891 718 l 891 678 q 838 677 824 665 q 809 652 809 598 l 809 123 q 809 66 823 52 q 838 39 891 39 l 891 0 q 833 3 801 4 q 770 5 749 5 q 728 5 696 4 q 663 3 602 0 l 602 39 q 655 39 670 53 q 684 68 684 123 l 685 650 l 680 650 l 450 5 l 403 10 l 177 650 l 170 650 l 165 146 l 165 134 q 165 74 181 56 q 197 39 247 39 l 247 0 q 217 2 191 3 q 165 4 143 4 q 119 4 91 3 q 62 2 31 0 l 31 39 q 89 41 105 55 q 121 69 122 142 l 128 622 l 128 627 q 128 659 114 668 q 100 677 45 678 z"},"g":{"x_min":0,"x_max":512,"ha":512,"o":"m 372 444 q 399 476 419 487 q 440 498 469 498 q 494 498 504 491 q 514 484 514 466 q 514 449 506 441 q 497 432 481 432 q 467 432 450 439 q 434 447 429 447 q 420 447 411 440 q 401 434 394 423 q 412 402 420 378 q 428 354 428 324 q 428 245 378 202 q 329 159 237 159 q 233 159 217 160 q 201 160 189 160 q 160 160 146 151 q 131 141 131 122 q 131 74 283 68 q 302 67 311 67 q 416 63 461 34 q 507 5 507 -55 q 507 -130 432 -178 q 357 -227 239 -227 q 145 -227 87 -194 q 29 -162 29 -109 q 29 -73 52 -46 q 74 -20 117 -5 q 87 7 73 29 q 58 50 58 80 q 58 114 80 139 q 102 165 143 178 q 94 192 67 229 q 40 265 40 317 q 40 393 94 441 q 147 489 233 489 q 277 489 312 477 q 348 466 372 444 z m 143 -24 q 116 -34 102 -54 q 87 -73 87 -98 q 87 -143 128 -167 q 169 -192 243 -192 q 323 -192 372 -164 q 422 -137 422 -94 q 422 -42 277 -34 q 195 -30 143 -24 z m 234 455 q 188 455 165 423 q 142 391 142 326 q 142 259 165 227 q 187 195 234 195 q 281 195 304 227 q 327 260 327 325 q 327 390 304 423 q 281 455 234 455 z"},"j":{"x_min":0,"x_max":289,"ha":289,"o":"m 213 490 l 213 -17 q 213 -123 169 -175 q 125 -226 34 -226 q -23 -226 -60 -198 q -96 -169 -96 -125 q -96 -97 -81 -79 q -65 -61 -42 -61 q -19 -61 -5 -77 q 10 -92 10 -117 q 10 -135 -1 -153 q -11 -170 -11 -172 q -11 -182 2 -188 q 15 -194 36 -194 q 73 -194 88 -170 q 103 -146 103 -76 l 101 382 q 101 421 87 430 q 73 440 3 440 l 3 475 q 58 477 110 480 q 162 484 213 490 z m 131 700 q 158 700 176 682 q 195 665 195 639 q 195 614 177 597 q 159 580 133 580 q 106 580 88 598 q 70 616 70 642 q 70 667 87 684 q 105 700 131 700 z"},"i":{"x_min":0,"x_max":300,"ha":300,"o":"m 145 701 q 171 701 188 685 q 205 669 205 644 q 205 616 185 596 q 165 576 137 576 q 111 576 95 593 q 78 609 78 634 q 78 661 99 681 q 119 701 145 701 z m 207 490 l 207 102 q 207 55 220 45 q 233 36 284 34 l 284 0 q 224 3 194 4 q 163 5 144 5 q 124 5 92 4 q 61 3 0 0 l 0 34 q 68 38 82 47 q 95 57 95 102 l 95 382 q 95 439 1 440 l 0 440 l 0 475 q 50 477 102 480 q 154 484 207 490 z"},"y":{"x_min":0,"x_max":478,"ha":478,"o":"m -13 480 q 18 478 46 477 q 74 476 100 476 q 130 476 162 477 q 193 478 225 480 l 225 446 q 196 446 183 440 q 171 434 171 419 q 171 413 173 405 q 175 396 181 382 l 281 139 q 341 298 358 348 q 374 399 374 417 q 374 432 360 439 q 347 445 312 446 l 312 480 q 335 478 357 477 q 378 476 397 476 q 413 476 434 477 q 454 478 477 480 l 477 446 q 454 445 440 434 q 426 422 415 394 l 251 -38 q 209 -149 174 -188 q 140 -226 88 -226 q 58 -226 38 -211 q 19 -196 19 -173 q 19 -152 35 -138 q 50 -124 73 -124 q 98 -124 116 -143 q 135 -162 143 -162 q 159 -162 181 -118 q 204 -75 228 7 l 59 385 q 58 387 57 390 q 34 440 -13 446 z"},"@":{"x_min":0,"x_max":986,"ha":986,"o":"m 637 402 l 662 485 l 746 485 l 662 184 l 661 181 q 654 152 654 137 q 654 113 665 100 q 675 87 694 87 q 710 87 735 98 q 759 108 780 125 q 833 168 862 233 q 891 299 891 378 q 891 514 798 598 q 705 681 552 681 q 467 681 391 649 q 315 618 258 559 q 198 498 168 419 q 138 341 138 245 q 138 161 167 95 q 196 30 255 -19 q 307 -62 375 -85 q 444 -108 523 -108 q 604 -108 680 -83 q 755 -58 828 -6 l 846 -29 q 774 -83 692 -111 q 611 -138 523 -138 q 431 -138 354 -115 q 276 -93 219 -50 q 146 5 107 85 q 68 166 68 262 q 68 361 110 448 q 152 535 232 601 q 298 655 377 683 q 457 711 546 711 q 716 711 818 619 q 920 527 920 374 q 920 296 891 229 q 862 161 809 113 q 779 86 746 73 q 713 59 681 59 q 633 59 607 85 q 580 110 577 159 q 546 108 510 84 q 474 60 429 60 q 364 60 325 105 q 287 150 287 226 q 287 281 311 333 q 335 385 380 428 q 413 460 452 477 q 491 493 531 493 q 575 493 602 470 q 629 447 637 402 z m 610 377 q 610 417 592 442 q 573 466 543 466 q 512 466 486 444 q 460 422 434 372 q 406 320 392 270 q 377 220 377 179 q 377 139 395 114 q 413 90 441 90 q 471 90 497 110 q 523 130 550 175 q 577 222 594 277 q 610 333 610 377 z"},".":{"x_min":0,"x_max":294,"ha":294,"o":"m 147 129 q 174 129 191 111 q 208 92 208 62 q 208 32 191 13 q 174 -6 147 -6 q 120 -6 102 13 q 85 32 85 62 q 85 91 103 110 q 120 129 147 129 z"},"p":{"x_min":0,"x_max":588,"ha":588,"o":"m 204 131 q 226 93 254 73 q 283 53 317 53 q 371 53 400 105 q 430 158 430 253 q 430 341 401 390 q 372 439 320 439 q 286 439 256 416 q 227 394 204 350 z m 92 382 q 92 420 80 429 q 67 439 11 440 l 11 475 q 59 477 106 480 q 153 484 201 490 l 201 404 q 226 446 264 468 q 303 490 352 490 q 440 490 495 424 q 550 358 550 251 q 550 136 495 69 q 440 3 346 3 q 302 3 268 19 q 234 35 204 70 l 204 -118 q 204 -165 216 -173 q 228 -182 290 -185 l 290 -220 q 243 -217 208 -216 q 174 -215 147 -215 q 126 -215 95 -216 q 65 -217 15 -220 l 15 -185 q 66 -182 79 -172 q 92 -163 92 -118 z"},"X":{"x_min":0,"x_max":666,"ha":666,"o":"m 16 718 q 24 718 40 717 q 122 714 155 714 q 188 714 272 717 q 290 718 299 718 l 299 678 q 267 678 252 671 q 238 663 238 647 q 238 639 240 631 q 243 624 252 609 l 363 434 l 483 622 q 491 635 493 642 q 495 648 495 655 q 495 666 481 672 q 467 678 441 678 l 435 678 l 435 718 q 473 715 500 714 q 526 713 547 713 q 560 713 581 714 q 602 715 645 718 l 645 678 l 641 678 q 604 678 581 665 q 558 652 534 616 l 389 403 l 580 109 q 610 63 627 51 q 643 39 664 39 l 668 39 l 668 0 q 616 1 582 2 q 547 3 531 3 q 507 3 469 2 q 430 1 378 0 l 378 39 q 417 39 433 47 q 448 54 448 72 q 448 80 445 89 q 441 98 434 109 l 300 318 l 162 104 q 155 93 152 84 q 148 74 148 68 q 148 54 161 47 q 175 39 199 39 l 208 39 l 208 0 q 177 2 149 3 q 120 4 96 4 q 80 4 54 3 q 29 2 -2 0 l -2 39 l 2 39 q 38 39 60 53 q 83 66 110 107 l 274 350 l 108 607 q 79 653 62 666 q 45 678 23 678 l 16 678 z"},"*":{"x_min":0,"x_max":487,"ha":487,"o":"m 233 519 l 254 519 q 256 511 259 498 q 274 431 274 420 q 274 399 267 390 q 261 380 244 375 q 228 379 220 390 q 213 400 213 418 q 213 432 225 483 q 230 506 233 519 z m 211 544 l 221 527 q 209 517 190 498 q 139 450 119 450 q 111 450 104 453 q 98 457 91 463 q 90 466 90 468 q 90 471 90 475 q 90 509 196 540 q 206 542 211 544 z m 276 544 q 284 542 300 537 q 397 509 397 476 q 397 476 396 472 q 396 468 395 464 q 387 457 380 454 q 374 450 367 450 q 348 450 291 504 q 275 519 266 527 z m 222 576 l 211 558 l 200 561 q 90 593 90 625 q 90 627 90 630 q 91 633 92 639 q 100 646 106 649 q 113 652 119 652 q 143 652 216 582 z m 395 639 q 396 637 396 632 q 397 628 397 627 q 397 594 302 566 q 285 561 276 558 l 266 576 q 273 583 286 595 q 346 652 368 652 q 375 652 382 649 q 389 646 395 639 z m 244 727 q 261 721 267 712 q 274 702 274 682 q 274 669 257 598 l 254 583 l 233 583 q 230 596 225 618 q 213 670 213 684 q 213 702 220 712 q 228 722 244 727 z"},"Y":{"x_min":0,"x_max":616,"ha":616,"o":"m -13 718 q 33 715 67 713 q 101 712 121 712 q 159 712 250 717 q 264 718 271 718 l 271 678 q 238 678 224 671 q 210 665 210 649 q 210 645 211 641 q 212 636 215 631 l 357 377 l 478 603 l 479 606 q 493 631 493 647 q 493 663 479 671 q 464 678 433 678 l 426 678 l 426 718 q 460 715 484 714 q 508 713 525 713 q 540 713 562 714 q 583 715 619 718 l 619 678 q 590 676 576 668 q 562 661 548 635 l 378 332 l 378 123 q 378 67 393 53 q 408 39 462 39 l 471 39 l 471 0 q 403 3 371 4 q 339 5 319 5 q 297 5 261 4 q 225 3 159 0 l 159 39 l 168 39 q 221 39 236 53 q 251 67 251 123 l 251 321 l 75 618 q 51 658 35 668 q 18 678 -10 678 l -13 678 z"},"c":{"x_min":0,"x_max":524,"ha":524,"o":"m 465 150 l 491 138 q 465 65 410 28 q 354 -9 272 -9 q 163 -9 100 55 q 36 118 36 227 q 36 346 106 418 q 177 490 293 490 q 372 490 425 450 q 478 409 478 353 q 478 328 465 313 q 452 299 429 299 q 406 299 391 316 q 376 333 376 359 q 376 373 382 388 q 388 404 388 409 q 388 425 362 439 q 335 454 298 454 q 232 454 194 396 q 156 339 156 239 q 156 147 195 98 q 234 49 307 49 q 362 49 402 74 q 442 100 465 150 z"},"!":{"x_min":0,"x_max":378,"ha":378,"o":"m 190 122 q 217 122 235 103 q 254 83 254 57 q 254 28 236 10 q 218 -9 190 -9 q 162 -9 143 10 q 123 29 123 57 q 123 83 143 102 q 164 122 190 122 z m 189 727 q 222 714 237 686 q 253 658 253 612 q 253 596 234 453 q 216 310 206 177 l 171 177 q 161 309 143 452 q 125 595 125 611 q 125 658 141 686 q 156 714 189 727 z"},"/":{"x_min":0,"x_max":317,"ha":317,"o":"m 263 727 l 323 727 l 25 -93 l -35 -93 z"},"[":{"x_min":0,"x_max":351,"ha":351,"o":"m 290 737 l 299 701 q 278 694 256 690 q 233 687 210 687 l 201 687 l 201 -139 l 217 -139 q 237 -139 255 -142 q 273 -146 290 -152 l 299 -189 q 277 -181 255 -177 q 232 -174 209 -174 q 187 -174 166 -177 q 144 -181 123 -187 q 125 -131 127 -73 q 128 -16 128 44 l 128 504 q 128 564 127 622 q 125 679 123 735 q 144 729 164 725 q 184 722 205 722 q 230 722 251 726 q 272 729 290 737 z"},"6":{"x_min":0,"x_max":587,"ha":587,"o":"m 161 301 q 161 294 160 287 q 160 279 160 264 q 160 148 196 89 q 232 31 303 31 q 366 31 402 79 q 437 127 437 214 q 437 292 402 338 q 367 384 307 384 q 269 384 231 363 q 194 342 161 301 z m 440 629 q 426 648 400 658 q 374 669 341 669 q 252 669 209 591 q 165 513 161 348 q 199 389 243 408 q 288 428 340 428 q 434 428 491 371 q 548 314 548 220 q 548 117 480 54 q 413 -9 304 -9 q 178 -9 110 77 q 41 162 41 319 q 41 497 121 603 q 200 709 331 709 q 412 709 469 666 q 526 623 526 565 q 526 541 513 526 q 501 511 480 511 q 458 511 444 528 q 430 545 430 573 q 430 585 433 599 q 435 613 440 629 z"},"r":{"x_min":0,"x_max":441,"ha":441,"o":"m 96 382 q 96 420 83 430 q 71 439 15 440 l 15 475 q 63 477 110 480 q 157 484 202 490 l 202 362 q 226 423 260 457 q 295 490 336 490 q 376 490 399 468 q 423 445 423 408 q 423 381 409 365 q 395 348 371 348 q 345 348 331 363 q 317 377 317 406 q 317 418 320 430 q 323 442 329 454 l 328 454 q 280 454 244 389 q 208 324 208 232 l 208 102 q 208 59 224 47 q 241 36 317 34 l 317 0 q 257 2 218 4 q 178 5 150 5 q 137 5 111 4 q 85 3 16 0 l 16 34 q 73 39 84 48 q 96 58 96 102 z"},"2":{"x_min":0,"x_max":587,"ha":587,"o":"m 138 81 q 168 90 201 94 q 234 98 280 98 q 314 98 368 95 q 423 93 443 93 q 495 93 511 205 l 512 210 l 546 210 l 518 -3 q 487 -4 471 -5 q 456 -5 442 -5 q 398 -5 305 -1 q 212 3 162 3 q 139 3 107 1 q 76 0 38 -4 l 32 3 q 50 43 83 83 q 115 124 160 161 q 169 169 188 184 q 384 346 384 481 q 384 566 344 613 q 304 660 231 660 q 166 660 123 621 q 81 582 79 520 q 117 513 139 492 q 162 471 162 445 q 162 423 149 411 q 137 398 115 398 q 78 398 54 428 q 31 458 31 505 q 31 594 95 651 q 160 708 263 708 q 371 708 437 651 q 503 593 503 501 q 503 422 458 357 q 413 292 296 210 q 284 202 262 186 q 165 119 138 81 z"},"{":{"x_min":0,"x_max":500,"ha":500,"o":"m 415 712 q 353 711 329 686 q 306 660 306 583 l 306 516 q 306 406 279 366 q 251 326 177 310 q 251 294 279 254 q 306 214 306 104 l 306 37 q 306 -40 329 -65 q 352 -90 415 -91 l 415 -119 l 410 -119 q 302 -119 261 -83 q 220 -47 220 50 l 220 148 q 220 227 192 257 q 164 288 87 294 l 87 327 q 165 334 192 364 q 220 394 220 473 l 220 571 q 220 668 261 704 q 303 740 415 740 z"},"9":{"x_min":0,"x_max":587,"ha":587,"o":"m 415 314 q 379 280 337 263 q 295 246 246 246 q 153 246 98 306 q 42 366 42 466 q 42 574 109 641 q 175 708 283 708 q 405 708 472 616 q 539 524 539 355 q 539 186 460 88 q 380 -10 244 -10 q 160 -10 104 33 q 47 76 47 136 q 47 164 61 181 q 74 199 95 199 q 119 199 132 181 q 146 162 146 131 q 146 121 144 109 q 141 98 136 82 q 150 59 179 45 q 208 31 245 31 q 329 31 371 101 q 413 171 415 314 z m 414 358 q 415 368 415 378 q 415 388 415 408 q 415 542 382 606 q 349 669 279 669 q 222 669 188 619 q 154 570 154 484 q 154 396 189 346 q 224 297 286 297 q 319 297 354 313 q 389 330 414 358 z"}," ":{"x_min":0,"x_max":293,"ha":293,"o":""},"I":{"x_min":0,"x_max":389,"ha":389,"o":"m 45 718 q 62 717 91 716 q 166 712 191 712 q 224 712 311 716 q 333 717 344 718 l 344 678 q 288 678 273 664 q 258 650 258 594 l 258 123 q 258 65 273 52 q 288 39 344 39 l 344 0 q 281 3 249 4 q 217 5 198 5 q 177 5 143 4 q 109 3 45 0 l 45 39 q 102 39 116 53 q 131 67 131 123 l 131 594 q 131 651 116 665 q 102 678 45 678 z"},"H":{"x_min":0,"x_max":834,"ha":834,"o":"m 48 718 q 63 717 91 716 q 166 712 191 712 q 223 712 308 716 q 330 717 341 718 l 341 678 q 288 678 273 664 q 258 649 258 594 l 258 402 l 576 402 l 576 594 q 576 650 562 664 q 547 677 494 678 l 494 718 q 508 717 533 716 q 609 712 636 712 q 667 712 753 716 q 774 717 786 718 l 786 678 q 732 677 718 663 q 703 649 703 594 l 703 123 q 703 66 718 53 q 732 39 786 39 l 786 0 q 745 2 708 4 q 672 5 643 5 q 623 5 591 4 q 559 3 494 0 l 494 39 q 547 39 562 53 q 576 68 576 123 l 576 362 l 258 362 l 258 123 q 258 67 272 53 q 287 39 341 39 l 341 0 q 282 3 250 4 q 217 5 198 5 q 166 5 128 4 q 90 2 48 0 l 48 39 q 102 39 116 53 q 131 68 131 123 l 131 594 q 131 650 116 664 q 102 677 48 678 z"},"4":{"x_min":0,"x_max":587,"ha":587,"o":"m 335 625 l 81 264 l 334 264 z m 444 706 l 444 264 l 533 264 l 533 204 l 444 204 l 444 91 q 444 51 453 43 q 463 35 506 35 l 506 0 q 458 1 427 2 q 396 3 382 3 q 353 3 316 2 q 280 1 238 0 l 238 35 q 303 35 317 45 q 330 56 330 94 l 330 204 l 32 204 l 39 270 l 333 684 q 362 687 390 692 q 417 697 444 706 z"},"~":{"x_min":0,"x_max":833,"ha":833,"o":"m 747 293 q 697 258 651 241 q 604 224 561 224 q 540 224 516 228 q 492 232 468 241 q 456 245 431 254 q 327 290 275 290 q 235 290 190 271 q 145 253 87 212 l 87 303 q 139 338 186 356 q 232 373 276 373 q 306 373 337 367 q 368 361 419 344 q 426 342 440 336 q 520 308 562 308 q 604 308 648 326 q 693 344 747 383 z"},"D":{"x_min":0,"x_max":788,"ha":788,"o":"m 258 678 l 258 40 l 328 40 q 393 40 427 47 q 462 54 489 70 q 547 104 576 177 q 605 250 605 361 q 605 531 539 604 q 473 678 316 678 z m 48 718 q 69 716 94 716 q 120 715 170 715 q 198 715 260 716 q 323 718 358 718 q 540 718 643 622 q 746 526 746 357 q 746 186 648 93 q 551 0 370 0 q 340 0 276 2 q 213 4 180 4 q 146 4 113 3 q 80 2 48 0 l 48 39 q 102 39 116 53 q 131 68 131 123 l 131 594 q 131 650 116 664 q 102 677 48 678 z"},"^":{"x_min":0,"x_max":1000,"ha":1000,"o":"m 552 714 l 797 438 l 746 438 l 499 632 l 252 438 l 201 438 l 447 714 z"},"0":{"x_min":0,"x_max":587,"ha":587,"o":"m 297 670 q 232 670 196 580 q 159 490 159 329 q 159 184 193 106 q 227 29 290 29 q 355 29 392 119 q 428 208 428 369 q 428 516 395 593 q 361 670 297 670 z m 295 708 q 412 708 480 612 q 548 516 548 350 q 548 188 477 90 q 406 -9 292 -9 q 177 -9 108 86 q 39 181 39 341 q 39 509 109 609 q 179 708 295 708 z"},"F":{"x_min":0,"x_max":642,"ha":642,"o":"m 48 718 l 614 718 q 616 666 618 620 q 621 574 624 530 l 591 530 q 580 618 544 648 q 509 678 413 678 l 258 678 l 258 391 l 332 391 q 399 391 417 412 q 435 432 438 502 l 471 502 q 470 483 469 451 q 467 389 467 370 q 467 332 470 240 q 471 226 471 219 l 438 219 q 434 303 415 327 q 396 351 332 351 l 258 351 l 258 123 q 258 66 273 53 q 289 39 355 39 l 355 0 l 48 0 l 48 39 q 103 40 117 54 q 131 68 131 123 l 131 594 q 131 650 116 664 q 102 677 48 678 z"},"`":{"x_min":0,"x_max":500,"ha":500,"o":"m 206 690 l 341 544 l 299 544 l 149 630 q 124 644 115 655 q 105 667 105 681 q 105 699 117 712 q 129 725 147 725 q 161 725 175 716 q 190 708 206 690 z"},"k":{"x_min":0,"x_max":556,"ha":556,"o":"m 94 643 q 94 678 83 688 q 71 698 20 700 l 20 734 q 57 735 100 737 q 143 739 203 744 l 203 237 l 356 387 q 369 400 376 411 q 384 421 384 427 q 384 436 373 441 q 361 445 336 446 l 336 480 q 343 479 356 479 q 410 476 430 476 q 452 476 508 479 q 518 479 523 480 l 523 446 l 518 446 q 494 446 475 439 q 457 432 440 416 l 305 286 l 482 87 q 509 57 529 45 q 549 34 573 34 l 573 0 q 525 3 500 4 q 474 5 457 5 q 440 5 414 4 q 388 3 338 0 l 338 34 q 354 35 363 39 q 371 44 371 53 q 371 57 369 62 q 366 67 361 73 l 234 222 l 203 194 l 203 102 q 203 57 213 47 q 223 38 261 34 l 261 0 q 204 3 181 4 q 159 5 146 5 q 124 5 93 4 q 63 3 14 0 l 14 34 q 72 40 83 49 q 94 59 94 102 z"},"u":{"x_min":0,"x_max":636,"ha":636,"o":"m 91 382 q 91 419 79 429 q 67 439 17 440 l 17 475 q 65 477 112 481 q 158 485 203 490 l 203 155 q 203 94 224 70 q 246 45 296 45 q 341 45 375 68 q 410 90 426 131 l 426 382 q 426 419 414 429 q 402 439 352 440 l 352 475 q 412 478 456 481 q 500 485 538 490 l 538 100 q 538 57 547 48 q 557 40 596 36 l 596 2 q 580 2 562 3 q 545 3 517 3 q 507 3 485 2 q 463 1 430 0 l 428 71 q 397 30 355 10 q 312 -9 251 -9 q 167 -9 129 33 q 91 75 91 167 z"},"]":{"x_min":0,"x_max":351,"ha":351,"o":"m 61 737 q 79 729 100 726 q 120 722 145 722 q 167 722 187 725 q 208 729 228 735 q 226 699 225 652 q 224 606 224 504 l 224 44 q 224 -58 225 -104 q 226 -151 228 -187 q 207 -180 186 -177 q 165 -174 143 -174 q 120 -174 97 -177 q 75 -181 52 -189 l 61 -152 q 78 -146 96 -142 q 115 -139 136 -139 l 150 -139 l 150 687 l 141 687 q 119 687 96 690 q 74 694 52 701 z"},"U":{"x_min":0,"x_max":804,"ha":804,"o":"m 44 718 q 59 717 87 716 q 162 712 187 712 q 218 712 304 716 q 325 717 337 718 l 337 678 q 283 678 269 664 q 254 649 254 594 l 254 273 q 254 206 257 180 q 261 155 269 137 q 289 93 334 72 q 380 50 453 50 q 504 50 541 64 q 579 78 602 106 q 620 128 627 162 q 635 197 635 285 l 635 572 q 635 647 620 663 q 605 678 552 678 l 552 718 q 586 715 613 714 q 641 713 662 713 q 677 713 699 714 q 721 715 757 718 l 757 678 q 709 678 696 663 q 682 648 682 572 l 682 274 q 682 189 672 149 q 663 108 640 77 q 608 34 550 13 q 491 -9 405 -9 q 322 -9 262 13 q 202 36 167 80 q 145 107 136 146 q 127 185 127 279 l 127 594 q 127 650 112 664 q 98 678 44 678 z"},"o":{"x_min":0,"x_max":544,"ha":544,"o":"m 273 455 q 217 455 186 399 q 156 343 156 240 q 156 136 185 81 q 215 25 270 25 q 327 25 357 81 q 387 136 387 240 q 387 344 358 399 q 328 455 273 455 z m 272 490 q 382 490 445 423 q 508 356 508 240 q 508 132 441 62 q 374 -9 272 -9 q 164 -9 100 57 q 36 123 36 235 q 36 348 103 419 q 169 490 272 490 z"},"N":{"x_min":0,"x_max":801,"ha":801,"o":"m 31 718 q 70 715 97 714 q 124 713 145 713 q 162 713 187 714 q 212 715 253 718 l 642 193 l 642 573 q 642 645 625 661 q 608 678 547 678 l 547 718 q 586 715 615 714 q 644 713 667 713 q 681 713 704 714 q 726 715 770 718 l 770 678 q 716 677 701 661 q 685 646 685 574 l 685 281 q 685 187 684 123 q 684 58 682 -6 l 630 0 l 166 624 l 166 144 q 166 70 183 54 q 200 39 261 39 l 261 0 q 216 3 189 4 q 162 5 142 5 q 130 5 109 4 q 87 3 34 0 l 34 39 q 91 40 108 56 q 124 72 124 144 l 124 594 q 124 650 109 664 q 94 678 40 678 l 31 678 z"},"+":{"x_min":0,"x_max":833,"ha":833,"o":"m 458 596 l 458 339 l 709 339 l 709 258 l 458 258 l 458 0 l 375 0 l 375 258 l 124 258 l 124 339 l 375 339 l 375 596 z"},"G":{"x_min":0,"x_max":748,"ha":748,"o":"m 606 666 l 617 713 l 648 713 q 646 678 646 651 q 645 624 645 603 q 645 566 647 491 l 647 483 l 614 483 q 606 581 553 634 q 500 687 412 687 q 298 687 240 603 q 183 519 183 350 q 183 193 238 113 q 293 33 402 33 q 469 33 506 54 q 543 75 543 113 l 543 196 q 543 247 447 250 q 424 251 412 252 l 412 290 q 463 288 503 286 q 543 285 576 285 q 596 285 628 286 q 659 287 720 290 l 720 252 q 688 250 677 240 q 665 231 665 209 l 665 35 l 612 64 q 565 26 511 9 q 457 -9 385 -9 q 225 -9 133 86 q 42 181 42 347 q 42 520 139 623 q 236 727 397 727 q 453 727 504 712 q 555 697 606 666 z"},"q":{"x_min":0,"x_max":580,"ha":580,"o":"m 386 394 q 371 418 346 432 q 321 446 291 446 q 229 446 194 393 q 159 340 159 246 q 159 154 191 106 q 224 57 285 57 q 315 57 341 71 q 366 84 386 111 z m 416 422 l 472 490 l 498 490 l 498 -136 q 498 -167 506 -175 q 515 -182 543 -185 l 543 -220 q 505 -217 478 -216 q 451 -215 430 -215 q 415 -215 388 -216 q 362 -217 298 -220 l 298 -185 q 363 -181 375 -172 q 386 -163 386 -118 l 386 63 q 356 34 319 20 q 282 5 240 5 q 149 5 94 69 q 40 132 40 240 q 40 347 103 418 q 165 490 256 490 q 304 490 343 474 q 382 457 416 422 z"},"d":{"x_min":0,"x_max":589,"ha":589,"o":"m 385 384 q 364 414 339 429 q 313 444 284 444 q 223 444 191 390 q 159 336 159 232 q 159 139 190 90 q 220 41 278 41 q 311 41 337 55 q 363 69 385 98 z m 385 643 q 385 679 374 688 q 362 698 303 700 l 303 734 q 348 735 396 737 q 445 740 497 744 l 497 97 q 497 56 508 46 q 520 36 561 34 l 561 0 q 522 -1 479 -4 q 437 -6 388 -9 l 387 57 q 360 24 323 8 q 287 -9 241 -9 q 147 -9 93 55 q 38 118 38 229 q 38 349 97 419 q 156 490 254 490 q 292 490 323 477 q 354 464 385 436 z"},"1":{"x_min":0,"x_max":587,"ha":587,"o":"m 359 708 l 359 112 q 359 59 373 48 q 388 37 443 37 l 457 37 l 457 0 q 388 3 353 4 q 318 5 297 5 q 267 5 226 4 q 184 3 117 0 l 117 37 l 142 37 q 209 37 227 50 q 244 62 244 113 l 244 625 q 208 619 177 612 q 146 605 119 596 l 119 638 q 156 649 241 669 q 327 689 359 708 z"},"5":{"x_min":0,"x_max":587,"ha":587,"o":"m 507 712 l 527 692 q 482 632 446 610 q 409 589 353 589 q 323 589 187 604 q 148 608 128 610 q 127 601 125 583 q 114 460 105 383 q 145 419 192 437 q 240 455 296 455 q 406 455 472 394 q 538 333 538 231 q 538 122 464 57 q 391 -9 268 -9 q 173 -9 110 38 q 47 85 47 153 q 47 188 63 210 q 79 232 105 232 q 127 232 141 217 q 155 202 155 176 q 155 158 147 139 q 140 121 125 102 q 138 70 174 51 q 210 32 256 32 q 332 32 376 84 q 421 135 421 224 q 421 309 377 356 q 334 404 257 404 q 212 404 172 386 q 133 369 90 330 l 64 355 q 71 419 79 496 q 86 573 97 706 q 237 692 310 687 q 383 681 412 681 q 441 681 462 688 q 483 695 507 712 z"}}}
